<svg id="Capa_1" enable-background="new 0 0 512 512" height="512" viewBox="0 0 512 512" width="512" xmlns="http://www.w3.org/2000/svg"><g><circle cx="256" cy="256" fill="#94f7f0" r="256"/><path d="m512 256c0-10.777-.674-21.395-1.967-31.822-51.619-51.618-105.341-105.337-105.341-105.337l-68.615 11.33c-7.464 7.464-17.587 11.657-28.142 11.657h-103.869c-10.554 0-20.676-4.193-28.14-11.655l-11.844-11.844-55.773 117.135 29.976 29.976-29.976 128.718s61.31 61.314 115.869 115.874c10.427 1.294 21.045 1.968 31.822 1.968 141.385 0 256-114.615 256-256z" fill="#5ce0d7"/><g><path d="m336.077 130.171c-7.464 7.464-17.587 11.657-28.142 11.657h-51.935l-29.849 34.824 29.849 34.825h51.934c10.556 0 20.679 4.193 28.142 11.657l11.842 11.842v-116.647z" fill="#c680ff"/><path d="m204.066 141.829c-10.555 0-20.678-4.193-28.142-11.657l-11.842-11.842v116.647l11.842-11.842c7.464-7.464 17.587-11.657 28.142-11.657h51.934v-69.649z" fill="#c8a6ff"/><path d="m135.939 246.633c-21.981 0-39.799-17.819-39.799-39.799v-60.362c0-21.98 17.819-39.799 39.799-39.799 21.981 0 39.799 17.819 39.799 39.799v60.362c0 21.98-17.819 39.799-39.799 39.799z" fill="#cdc8fa"/><path d="m376.061 246.633c-21.981 0-39.799-17.819-39.799-39.799v-60.362c0-21.98 17.819-39.799 39.799-39.799 21.981 0 39.799 17.819 39.799 39.799v60.362c0 21.98-17.818 39.799-39.799 39.799z" fill="#c8a6ff"/><path d="m336.077 288.866c-7.464 7.464-17.587 11.657-28.142 11.657h-51.935l-29.849 34.824 29.849 34.825h51.934c10.556 0 20.679 4.193 28.142 11.657l11.842 11.842v-116.647z" fill="#c680ff"/><path d="m204.066 300.523c-10.555 0-20.678-4.193-28.142-11.657l-11.842-11.842v116.647l11.842-11.842c7.464-7.464 17.587-11.657 28.142-11.657h51.934v-69.649z" fill="#c8a6ff"/><path d="m135.939 405.328c-21.981 0-39.799-17.819-39.799-39.799v-60.362c0-21.98 17.819-39.799 39.799-39.799 21.981 0 39.799 17.819 39.799 39.799v60.362c0 21.98-17.819 39.799-39.799 39.799z" fill="#cdc8fa"/><path d="m376.061 405.328c-21.981 0-39.799-17.819-39.799-39.799v-60.362c0-21.98 17.819-39.799 39.799-39.799 21.981 0 39.799 17.819 39.799 39.799v60.362c0 21.98-17.818 39.799-39.799 39.799z" fill="#c8a6ff"/></g></g></svg>