<svg id="Capa_1" enable-background="new 0 0 479.513 479.513" height="50" viewBox="0 0 479.513 479.513" width="50" xmlns="http://www.w3.org/2000/svg"><g><g><g><circle cx="235.756" cy="239.756" fill="#f9eed7" r="210.3"/></g></g><g><g><circle cx="235.756" cy="239.756" fill="#d5c6ad" r="145.567"/></g></g><g><g><path d="m387.473 246.261-145.213 145.212c-3.592 3.592-9.416 3.592-13.008 0l-145.213-145.212c-3.592-3.592-3.592-9.416 0-13.008l145.213-145.214c3.592-3.592 9.416-3.592 13.008 0l145.213 145.213c3.592 3.592 3.592 9.416 0 13.009z" fill="#f2f5fb"/></g></g><g><g><path d="m284.706 194.626c-4.284 0-8.336.992-11.943 2.755-6.004-14.529-20.309-24.756-37.007-24.756s-31.003 10.227-37.007 24.756c-3.606-1.763-7.658-2.755-11.943-2.755-15.041 0-27.234 12.193-27.234 27.234s12.193 27.234 27.234 27.234c.726 0 1.443-.037 2.154-.093l11.574 62.137c.46 3.284 3.269 5.726 6.585 5.726h57.274c3.316 0 6.125-2.443 6.585-5.726l11.574-62.137c.712.056 1.428.093 2.154.093 15.041 0 27.234-12.193 27.234-27.234s-12.193-27.234-27.234-27.234z" fill="#a2c3fe"/></g></g><g><g><path d="m235.756 29.457c-5.044 0-10.044.189-15 .539 109.143 7.693 195.3 98.661 195.3 209.761s-86.156 202.068-195.3 209.761c4.956.349 9.956.539 15 .539 116.145 0 210.3-94.154 210.3-210.3s-94.155-210.3-210.3-210.3z" fill="#e9e0c3"/></g></g><g><g><path d="m387.473 233.252-145.213-145.213c-3.592-3.592-9.416-3.592-13.008 0l-8.496 8.496 136.717 136.717c3.592 3.592 3.592 9.416 0 13.008l-136.717 136.718 8.496 8.496c3.592 3.592 9.416 3.592 13.008 0l145.213-145.214c3.592-3.592 3.592-9.416 0-13.008z" fill="#e6e8f0"/></g></g><g><g><path d="m279.718 194.625c-.207 0-.41.013-.616.018 1.813 4.162 2.838 8.85 2.838 13.813 0 17.163-12.193 31.076-27.234 31.076-.726 0-1.443-.042-2.154-.106l-11.574 70.904c-.46 3.747-3.269 6.534-6.585 6.534h25.012c3.316 0 6.125-2.443 6.585-5.727l11.574-62.137c.712.056 1.428.093 2.155.093 15.041 0 27.234-12.193 27.234-27.234-.001-15.04-12.194-27.234-27.235-27.234z" fill="#77a2f3"/></g></g><g><g><path d="m194.901 280.896 5.633 30.242c.46 3.284 3.269 5.726 6.585 5.726h57.274c3.316 0 6.125-2.443 6.585-5.726l5.633-30.242z" fill="#4b83e8"/></g></g><g><g><path d="m246.611 280.896-5.633 30.242c-.46 3.284-3.269 5.726-6.585 5.726h27.077c3.315 0 6.125-2.442 6.585-5.726l5.633-30.242z" fill="#3966bd"/></g></g><g><g><path d="m39.829 429.739h-1.155c-14.016 0-25.379-11.363-25.379-25.379v-118.716c0-4.603 3.732-8.335 8.335-8.335h35.243c4.603 0 8.335 3.732 8.335 8.335v118.716c0 14.017-11.362 25.379-25.379 25.379z" fill="#fe787e"/></g></g><g><g><path d="m7.5 106.9v32.55c0 7.417 6.013 13.43 13.43 13.43 1.507 0 2.729 1.222 2.729 2.729v121.189c0 .283.229.512.512.512h30.163c.283 0 .512-.229.512-.512v-123.407c0-.283.229-.512.512-.512 7.417 0 13.43-6.013 13.43-13.43v-32.549c0-.283-.229-.512-.512-.512h-60.264c-.283 0-.512.229-.512.512z" fill="#b8b8b8"/></g></g><g><g><path d="m446.633 429.739h-1.155c-14.016 0-25.379-11.363-25.379-25.379v-118.716c0-4.603 3.732-8.335 8.335-8.335h35.243c4.603 0 8.335 3.732 8.335 8.335v118.716c.001 14.017-11.362 25.379-25.379 25.379z" fill="#fe787e"/></g></g><g><g><path d="m56.873 277.309h-30c4.603 0 8.335 3.732 8.335 8.335v118.716c0 8.658-4.339 16.299-10.957 20.879 4.096 2.835 9.064 4.5 14.422 4.5h1.155c14.016 0 25.379-11.363 25.379-25.379v-118.716c.001-4.603-3.73-8.335-8.334-8.335z" fill="#fb5c6f"/></g></g><g><g><path d="m463.677 277.309h-30c4.603 0 8.335 3.732 8.335 8.335v118.716c0 8.658-4.338 16.299-10.957 20.879 4.096 2.835 9.064 4.5 14.422 4.5h1.155c14.017 0 25.379-11.363 25.379-25.379v-118.716c.002-4.603-3.73-8.335-8.334-8.335z" fill="#fb5c6f"/></g></g><g><g><path d="m446.051 42.391c-7.848 0-14.474 5.83-15.473 13.614l-16.078 125.312c-1.026 7.995 3.283 15.316 9.995 18.63 3.725 1.839 5.968 5.758 5.968 9.912v67.45h31.187v-219.319c-.001-8.615-6.985-15.599-15.599-15.599z" fill="#b8b8b8"/></g></g><g><path d="m284.706 187.125c-2.81 0-5.564.328-8.238.981-8.511-14.157-23.821-22.981-40.712-22.981s-32.201 8.824-40.712 22.981c-2.674-.652-5.427-.981-8.237-.981-19.152 0-34.734 15.582-34.734 34.734 0 17.764 13.403 32.455 30.629 34.492l10.435 56.024c1.059 6.849 7.035 11.988 13.983 11.988h57.274c6.946 0 12.923-5.14 13.983-11.987l10.435-56.025c17.226-2.037 30.629-16.729 30.629-34.492-.001-19.151-15.583-34.734-34.735-34.734zm-21.026 122.24h-55.847l-3.906-20.969h63.658zm21.026-67.772c-.463 0-.976-.022-1.569-.069-3.833-.284-7.256 2.334-7.958 6.104l-4.8 25.767h-69.246l-4.8-25.767c-.702-3.77-4.129-6.387-7.958-6.104-.594.047-1.106.069-1.569.069-10.882 0-19.734-8.852-19.734-19.733 0-10.882 8.853-19.734 19.734-19.734 3.033 0 5.943.671 8.649 1.993 1.86.909 4.015 1.009 5.95.275 1.937-.733 3.483-2.235 4.274-4.149 5.051-12.223 16.855-20.12 30.075-20.12 13.219 0 25.024 7.897 30.076 20.12.791 1.914 2.338 3.416 4.274 4.149 1.938.733 4.09.634 5.95-.275 2.706-1.322 5.616-1.993 8.649-1.993 10.882 0 19.734 8.853 19.734 19.734.003 10.881-8.849 19.733-19.731 19.733z"/><path d="m387.537 222.708c-.007-.21-.016-.42-.041-.631-3.93-34.085-19.539-66.246-43.952-90.558-24.421-24.319-56.658-39.795-90.774-43.578l-5.205-5.205c-3.154-3.153-7.348-4.891-11.809-4.891s-8.654 1.737-11.808 4.891l-5.294 5.294c-.346-.008-.695-.001-1.047.041-34.156 4.046-66.327 19.815-90.588 44.402-24.04 24.364-39.306 56.384-43.07 90.262l-5.214 5.214c-6.51 6.511-6.51 17.105 0 23.615l5.213 5.213c3.796 34.171 19.267 66.398 43.649 90.846 24.481 24.547 56.828 40.134 91.141 43.943l5.21 5.209c3.153 3.154 7.347 4.892 11.808 4.892s8.654-1.737 11.809-4.891l5.215-5.215c34.016-3.781 66.119-19.131 90.527-43.332 24.714-24.506 40.433-56.974 44.261-91.424.001-.012.001-.023.002-.034l5.208-5.208c6.51-6.511 6.51-17.104 0-23.615zm-54.578-80.561c17.208 17.137 29.565 38.593 35.834 61.817l-97.236-97.236c23.035 6.22 44.334 18.422 61.402 35.419zm-194.74 194.884c-17.049-17.094-29.262-38.403-35.488-61.472l97.227 97.227c-23.191-6.259-44.601-18.57-61.739-35.755zm97.537 49.636c-.32 0-.789-.086-1.2-.498l-145.213-145.212c-.662-.661-.662-1.739 0-2.4l65.456-65.456c2.929-2.93 2.929-7.678 0-10.607-2.93-2.928-7.678-2.928-10.607 0l-41.458 41.458c6.164-22.827 18.194-43.948 34.962-60.942 17.211-17.443 38.833-29.96 62.264-36.284l-36.424 36.424c-2.929 2.93-2.929 7.678 0 10.607 2.93 2.928 7.678 2.927 10.607 0l60.412-60.413c.411-.411.88-.497 1.2-.497.321 0 .79.086 1.201.498l145.214 145.211c.662.661.662 1.739 0 2.4l-145.213 145.213c-.411.413-.88.498-1.201.498zm96.989-49.089c-17.044 16.9-38.246 29.011-61.184 35.203l97.228-97.228c-6.292 23.321-18.714 44.842-36.044 62.025z"/><path d="m469.15 270.804v-78.956c0-4.143-3.358-7.5-7.5-7.5-4.143 0-7.5 3.357-7.5 7.5v77.961h-16.187v-59.95c0-7.062-3.983-13.593-10.147-16.637-4.096-2.022-6.458-6.424-5.876-10.951l16.078-125.311c.517-4.03 3.971-7.069 8.033-7.069 4.466 0 8.099 3.633 8.099 8.099v103.858c0 4.143 3.357 7.5 7.5 7.5 4.142 0 7.5-3.357 7.5-7.5v-103.858c0-12.736-10.362-23.099-23.1-23.099-11.586 0-21.436 8.667-22.911 20.16l-7.87 61.34c-40.411-58.718-107.442-94.435-179.512-94.435-61.066 0-118.302 25.134-159.47 69.467v-49.032c0-4.143-3.357-7.5-7.5-7.5s-7.5 3.357-7.5 7.5v56.497h-15.644v-56.497c0-4.143-3.358-7.5-7.5-7.5s-7.5 3.357-7.5 7.5v56.497h-15.643v-56.497c0-4.143-3.358-7.5-7.5-7.5s-7.5 3.357-7.5 7.5v97.059c0 9.899 6.909 18.216 16.158 20.381v110.973c-6.039 2.235-10.363 8.034-10.363 14.84v118.716c0 18.13 14.75 32.879 32.879 32.879h1.155c18.129 0 32.879-14.749 32.879-32.879v-20.222c18.011 20.292 39.818 37.257 63.89 49.587 30.873 15.812 64.235 23.831 99.158 23.831 70.524 0 136.19-34.171 176.844-90.631v37.435c0 18.13 14.749 32.879 32.879 32.879h1.155c18.13 0 32.879-14.749 32.879-32.879v-118.716c0-6.806-4.325-12.605-10.363-14.84zm-411.442 133.556c0 9.858-8.021 17.879-17.879 17.879h-1.155c-9.859 0-17.879-8.02-17.879-17.879v-118.716c0-.46.375-.835.835-.835h35.243c.46 0 .835.375.835.835zm3.578-264.91c0 3.27-2.66 5.93-5.93 5.93-4.417 0-8.012 3.594-8.012 8.012v116.418h-16.186v-114.202c0-5.64-4.588-10.229-10.229-10.229-3.27 0-5.93-2.66-5.93-5.93v-25.562h46.286v25.563zm361.677 131.354c-6.039 2.235-10.363 8.034-10.363 14.84v53.441c-35.942 63.855-103.577 103.471-176.844 103.471-32.523 0-63.583-7.463-92.32-22.183-27.42-14.044-51.692-34.544-70.194-59.284-.168-.224-.347-.434-.533-.633v-74.812c0-6.806-4.325-12.605-10.363-14.84v-111.624c8.115-2.883 13.941-10.639 13.941-19.73v-25.196c.321-.284.626-.592.902-.938 38.747-48.527 96.543-76.359 158.567-76.359 73.016 0 140.481 39.375 176.505 102.872l-5.201 40.533c-1.396 10.878 4.275 21.451 14.112 26.31 1.088.537 1.79 1.788 1.79 3.188v60.944zm41.55 133.556c0 9.858-8.021 17.879-17.879 17.879h-1.155c-9.858 0-17.879-8.02-17.879-17.879v-118.716c0-.46.375-.835.835-.835h35.243c.46 0 .835.375.835.835z"/></g></g></svg>