<svg id="Capa_1" enable-background="new 0 0 512 512" height="100" viewBox="0 0 512 512" width="100" xmlns="http://www.w3.org/2000/svg"><g><g><g><g><g><g><g><circle cx="256" cy="256" fill="#ff6c52" r="256"/></g></g></g></g></g></g><path d="m510.359 226.86-71.222-71.222-17.251 102.542-50.999-50.999-8.856 17.488-92.77-92.77-86.314 64.16-49.544-49.544-5.382 23.614-23.614-23.614-5.096 23.899-23.899-23.899-9.509 73.14 32.258 32.258-19.415 112.882 145.22 145.22c10.494 1.31 21.185 1.985 32.034 1.985 141.385 0 256-114.615 256-256 0-9.853-.557-19.577-1.641-29.14z" fill="#e51010"/><g><path d="m370.887 207.181c-5.069 4.756-11.888 7.668-19.388 7.668-10.354 0-19.41-5.552-24.356-13.84-4.984 4.358-11.507 6.999-18.648 6.999-15.654 0-28.344-12.69-28.344-28.344 0-3.586.667-7.017 1.882-10.175-9.234-4.672-15.565-14.25-15.565-25.306 0-4.401 1.003-8.568 2.793-12.284-4.357-.46-8.781-.697-13.26-.697-68.924 0-124.797 55.874-124.797 124.797 0 68.924 55.874 124.797 124.797 124.797s124.796-55.873 124.796-124.796c0-17.324-3.53-33.824-9.91-48.819z" fill="#e9edf5"/></g><g><path d="m370.887 207.181c-5.069 4.756-11.888 7.668-19.388 7.668-10.354 0-19.41-5.552-24.356-13.84-4.984 4.358-11.507 6.998-18.648 6.998-15.654 0-28.344-12.69-28.344-28.344 0-3.586.667-7.017 1.882-10.175-9.234-4.672-15.565-14.25-15.565-25.306 0-4.401 1.003-8.568 2.793-12.284-4.357-.46-8.781-.697-13.26-.697v249.594c68.924 0 124.797-55.874 124.797-124.797-.001-17.322-3.531-33.821-9.911-48.817z" fill="#cdd2e1"/></g><g><path d="m409.816 281.175h29.321v83.62h-29.321z" fill="#fdba12"/></g><g><path d="m439.137 283.673h-43.004v-96.201c0-17.582 14.253-31.835 31.835-31.835h11.17v128.036z" fill="#cdd2e1"/></g><path d="m111.402 146.515v42.43h-6.996v-42.43h-22v42.43h-6.995v-42.43h-22v44.145c0 18.24 12.273 33.667 28.995 38.457v67.771h22v-67.771c16.722-4.79 28.996-20.217 28.996-38.457v-44.145z" fill="#e9edf5"/><g><path d="m78.746 281.175h29.321v83.62h-29.321z" fill="#ffce00"/></g><g><path d="m308.495 208.008c-15.654 0-28.344-12.69-28.344-28.344 0-1.193.074-2.369.217-3.524-7.709-2.349-15.891-3.613-24.368-3.613-46.101 0-83.473 37.372-83.473 83.473s37.372 83.473 83.473 83.473 83.473-37.372 83.473-83.473c0-19.352-6.586-37.165-17.638-51.322-3.975 2.125-8.517 3.33-13.34 3.33z" fill="#fff"/></g><g><path d="m321.835 204.678c-3.976 2.125-8.517 3.33-13.341 3.33-15.654 0-28.344-12.69-28.344-28.344 0-1.193.074-2.369.218-3.524-7.709-2.349-15.891-3.613-24.368-3.613v166.946c46.101 0 83.473-37.372 83.473-83.473 0-19.352-6.586-37.165-17.638-51.322z" fill="#e9edf5"/></g></g></svg>